<svg width="26" height="20" viewBox="0 0 26 20" fill="none" xmlns="http://www.w3.org/2000/svg">
<path d="M6.5 2.20039C6.5 1.48245 7.08206 0.900391 7.8 0.900391H24.7C25.4179 0.900391 26 1.48245 26 2.20039C26 2.91834 25.4179 3.50039 24.7 3.50039H7.8C7.08206 3.50039 6.5 2.91829 6.5 2.20039ZM24.7 8.70039H1.3C0.582055 8.70039 0 9.2825 0 10.0004C0 10.7183 0.582055 11.3004 1.3 11.3004H24.7C25.4179 11.3004 26 10.7183 26 10.0004C26 9.2825 25.4179 8.70039 24.7 8.70039ZM24.7 16.5004H13C12.2821 16.5004 11.7 17.0824 11.7 17.8004C11.7 18.5183 12.2821 19.1004 13 19.1004H24.7C25.4179 19.1004 26 18.5183 26 17.8004C26 17.0824 25.4179 16.5004 24.7 16.5004Z" fill="#376489"/>
</svg>
