<svg width="56" height="56" viewBox="0 0 56 56" fill="none" xmlns="http://www.w3.org/2000/svg">
<path d="M47.8333 21H44.3333V16.3333C44.3333 7.32703 37.0064 0 28 0C18.9936 0 11.6667 7.32703 11.6667 16.3333V21H8.1667C8.01346 20.9999 7.8617 21.03 7.72011 21.0886C7.57851 21.1472 7.44985 21.2331 7.3415 21.3415C7.23314 21.4499 7.1472 21.5785 7.08861 21.7201C7.03001 21.8617 6.9999 22.0135 7 22.1667V51.3334C7 53.9071 9.09289 56 11.6667 56H44.3334C46.9071 56 49 53.9071 49 51.3333V22.1667C49.0001 22.0135 48.97 21.8617 48.9114 21.7201C48.8528 21.5785 48.7669 21.4499 48.6585 21.3415C48.5501 21.2331 48.4215 21.1472 48.2799 21.0886C48.1383 21.03 47.9865 20.9999 47.8333 21ZM31.4932 45.3713C31.5113 45.5343 31.4947 45.6994 31.4447 45.8557C31.3946 46.0119 31.3122 46.1559 31.2027 46.2781C31.0933 46.4004 30.9593 46.4982 30.8095 46.5651C30.6597 46.6321 30.4975 46.6667 30.3334 46.6667H25.6667C25.5026 46.6667 25.3404 46.6321 25.1906 46.5651C25.0408 46.4982 24.9068 46.4004 24.7974 46.2781C24.6879 46.1559 24.6055 46.0119 24.5554 45.8557C24.5054 45.6994 24.4888 45.5343 24.5069 45.3713L25.2429 38.753C24.0477 37.8837 23.3334 36.5085 23.3334 35C23.3334 32.4263 25.4263 30.3333 28.0001 30.3333C30.5739 30.3333 32.6668 32.4262 32.6668 35C32.6668 36.5085 31.9525 37.8837 30.7573 38.753L31.4932 45.3713ZM37.3333 21H18.6667V16.3333C18.6667 11.187 22.8537 7 28 7C33.1463 7 37.3333 11.187 37.3333 16.3333V21Z" fill="white"/>
</svg>
